<svg xmlns="http://www.w3.org/2000/svg" xmlns:se="http://svg-edit.googlecode.com" xmlns:xlink="http://www.w3.org/1999/xlink" xmlns:dc="http://purl.org/dc/elements/1.1/" xmlns:cc="http://creativecommons.org/ns#" xmlns:rdf="http://www.w3.org/1999/02/22-rdf-syntax-ns#" xmlns:inkscape="http://www.inkscape.org/namespaces/inkscape" width="777" height="480" style=""><rect id="backgroundrect" width="100%" height="100%" x="0" y="0" fill="none" stroke="none"/>                                    <title>my vector image</title>                                    <!-- Created with Vector Paint - http://www.vectorpaint.yaks.com/ https://chrome.google.com/webstore/detail/hnbpdiengicdefcjecjbnjnoifekhgdo -->                                                                    <g class="currentLayer" style=""><title>Layer 1</title><path fill="none" fill-opacity="1" stroke="#484848" stroke-opacity="1" stroke-width="2" stroke-dasharray="none" stroke-linejoin="round" stroke-linecap="butt" stroke-dashoffset="" fill-rule="nonzero" opacity="1" marker-start="" marker-mid="" marker-end="" d="M312.83612043349797,282.09033398838545 C312.83612043349797,237.12463258589352 346.02055367843,218.32247533004158 389.46822208618926,218.32247533004158 C432.9158904939482,218.32247533004158 470.11668156367114,237.12463258589352 470.11668156367114,282.09033398838545 C470.11668156367114,327.0560353908774 434.9240652561076,363.47824229032926 391.4763968483485,363.47824229032926 C348.02873674106166,363.47824229032926 312.83612043349797,327.0560353908774 312.83612043349797,282.09033398838545 z" class="" transform="rotate(179.6160430908203 391.4763793945313,290.9003601074219) " id="svg_27"/><path fill="#e55252" fill-opacity="1" stroke="#484848" stroke-opacity="1" stroke-width="2" stroke-dasharray="none" stroke-linejoin="round" stroke-linecap="butt" stroke-dashoffset="" fill-rule="nonzero" opacity="1" marker-start="" marker-mid="" marker-end="" d="M312.83612043349797,282.09033398838545 C312.83612043349797,237.12463258589352 346.02055367843,218.32247533004158 389.46822208618926,218.32247533004158 C432.9158904939482,218.32247533004158 470.11668156367114,237.12463258589352 470.11668156367114,282.09033398838545 C470.11668156367114,327.0560353908774 434.9240652561076,363.47824229032926 391.4763968483485,363.47824229032926 C348.02873674106166,363.47824229032926 312.83612043349797,327.0560353908774 312.83612043349797,282.09033398838545 z" class="" transform="rotate(179.6160430908203 391.4763793945313,290.9003601074219) " id="svg_30"/><path fill="#ffffff" fill-opacity="1" stroke="#484848" stroke-opacity="1" stroke-width="2" stroke-dasharray="none" stroke-linejoin="round" stroke-linecap="butt" stroke-dashoffset="" fill-rule="nonzero" opacity="1" marker-start="" marker-mid="" marker-end="" d="M314.54838823964076,202.4445331121101 C314.54838823964076,164.60422850750692 348.43673160511446,133.9535817777783 390.2741925501437,133.9535817777783 C432.111653495173,133.9535817777783 465.99999686064666,164.60422850750692 465.99999686064666,202.4445331121101 C465.99999686064666,240.2848377167133 432.111653495173,270.9354844464419 390.2741925501437,270.9354844464419 C348.43673160511446,270.9354844464419 314.54838823964076,240.2848377167133 314.54838823964076,202.4445331121101 z" class="" id="svg_16"/><path fill="#e55252" fill-opacity="1" stroke="#484848" stroke-opacity="1" stroke-width="2" stroke-dasharray="none" stroke-linejoin="round" stroke-linecap="butt" stroke-dashoffset="" fill-rule="nonzero" opacity="1" marker-start="" marker-mid="" marker-end="" d="M314.54838823964076,202.4445331121101 C314.54838823964076,164.60422850750692 348.43673160511446,133.9535817777783 390.2741925501437,133.9535817777783 C432.111653495173,133.9535817777783 465.99999686064666,164.60422850750692 465.99999686064666,202.4445331121101 C465.99999686064666,240.2848377167133 432.111653495173,270.9354844464419 390.2741925501437,270.9354844464419 C348.43673160511446,270.9354844464419 314.54838823964076,240.2848377167133 314.54838823964076,202.4445331121101 z" class="" id="svg_38"/><path fill="none" stroke="#484848" stroke-opacity="1" stroke-width="2" stroke-dasharray="none" stroke-linejoin="round" stroke-linecap="butt" stroke-dashoffset="" fill-rule="nonzero" opacity="1" marker-start="" marker-mid="" marker-end="" d="M361.9677187988244,214.9354844628482 C361.9677187988244,208.145251096451 375.24877414026315,202.64516206966925 391.64513875932323,202.64516206966925 C408.04150337838337,202.64516206966925 421.32255871982204,208.145251096451 421.32255871982204,214.9354844628482 C421.32255871982204,221.72571782924538 408.04150337838337,227.22580685602713 391.64513875932323,227.22580685602713 C375.24877414026315,227.22580685602713 361.9677187988244,221.72571782924538 361.9677187988244,214.9354844628482 z" class="" id="svg_41"/><path fill="none" fill-opacity="1" stroke="#222222" stroke-opacity="1" stroke-width="2" stroke-dasharray="none" stroke-linejoin="round" stroke-linecap="butt" stroke-dashoffset="" fill-rule="nonzero" opacity="1" marker-start="" marker-mid="" marker-end="" id="svg_3" d="M343.5010380981994,246.70966097070627 " style="color: rgb(0, 0, 0);" class=""/><path fill="none" fill-opacity="1" stroke="#222222" stroke-opacity="1" stroke-width="2" stroke-dasharray="none" stroke-linejoin="round" stroke-linecap="butt" stroke-dashoffset="" fill-rule="nonzero" opacity="1" marker-start="" marker-mid="" marker-end="" id="svg_4" d="M345.11394126353287,246.70966097070627 " style="color: rgb(0, 0, 0);" class=""/><path fill="none" fill-opacity="1" stroke="#222222" stroke-opacity="1" stroke-width="2" stroke-dasharray="none" stroke-linejoin="round" stroke-linecap="butt" stroke-dashoffset="" fill-rule="nonzero" opacity="1" marker-start="" marker-mid="" marker-end="" id="svg_5" d="M346.72684442886634,249.12901571870646 " style="color: rgb(0, 0, 0);" class=""/><path fill="none" fill-opacity="1" stroke="#222222" stroke-opacity="1" stroke-width="2" stroke-dasharray="none" stroke-linejoin="round" stroke-linecap="butt" stroke-dashoffset="" fill-rule="nonzero" opacity="1" marker-start="" marker-mid="" marker-end="" id="svg_6" d="M353.17845709020025,249.12901571870646 " style="color: rgb(0, 0, 0);" class=""/><path fill="none" stroke="#484848" stroke-opacity="1" stroke-width="2" stroke-dasharray="none" stroke-linejoin="round" stroke-linecap="butt" stroke-dashoffset="" fill-rule="nonzero" opacity="1" marker-start="" marker-mid="" marker-end="" d="M361.9677187988244,214.9354844628482 C361.9677187988244,208.145251096451 375.24877414026315,202.64516206966925 391.64513875932323,202.64516206966925 C408.04150337838337,202.64516206966925 421.32255871982204,208.145251096451 421.32255871982204,214.9354844628482 C421.32255871982204,221.72571782924538 408.04150337838337,227.22580685602713 391.64513875932323,227.22580685602713 C375.24877414026315,227.22580685602713 361.9677187988244,221.72571782924538 361.9677187988244,214.9354844628482 z" class="" id="svg_36"/><path fill="none" stroke="#484848" stroke-opacity="1" stroke-width="2" stroke-dasharray="none" stroke-linejoin="round" stroke-linecap="butt" stroke-dashoffset="" fill-rule="nonzero" opacity="1" marker-start="" marker-mid="" marker-end="" d="M361.9677187988244,214.9354844628482 C361.9677187988244,208.145251096451 375.24877414026315,202.64516206966925 391.64513875932323,202.64516206966925 C408.04150337838337,202.64516206966925 421.32255871982204,208.145251096451 421.32255871982204,214.9354844628482 C421.32255871982204,221.72571782924538 408.04150337838337,227.22580685602713 391.64513875932323,227.22580685602713 C375.24877414026315,227.22580685602713 361.9677187988244,221.72571782924538 361.9677187988244,214.9354844628482 z" class="" id="svg_32"/><path fill="none" stroke="#484848" stroke-opacity="1" stroke-width="2" stroke-dasharray="none" stroke-linejoin="round" stroke-linecap="butt" stroke-dashoffset="" fill-rule="nonzero" opacity="1" marker-start="" marker-mid="" marker-end="" d="M361.9677187988244,214.9354844628482 C361.9677187988244,208.145251096451 375.24877414026315,202.64516206966925 391.64513875932323,202.64516206966925 C408.04150337838337,202.64516206966925 421.32255871982204,208.145251096451 421.32255871982204,214.9354844628482 C421.32255871982204,221.72571782924538 408.04150337838337,227.22580685602713 391.64513875932323,227.22580685602713 C375.24877414026315,227.22580685602713 361.9677187988244,221.72571782924538 361.9677187988244,214.9354844628482 z" class="" id="svg_29"/><path fill="#ffffff" fill-opacity="1" stroke="none" stroke-opacity="1" stroke-width="2" stroke-dasharray="none" stroke-linejoin="round" stroke-linecap="butt" stroke-dashoffset="" fill-rule="nonzero" opacity="1" marker-start="" marker-mid="" marker-end="" id="svg_9" d="M 398.33974571953763 236.22579039603863 L 384.6774193548387 237.09677419354838" style="color: rgb(0, 0, 0);" class=""/><path fill="#e55252" fill-opacity="1" stroke="#e55252" stroke-opacity="1" stroke-width="2" stroke-dasharray="none" stroke-linejoin="round" stroke-linecap="butt" stroke-dashoffset="" fill-rule="nonzero" opacity="1" marker-start="" marker-mid="" marker-end="" d="M332.8709684539122,250.84992739970934 C332.8709684539122,225.42936427711055 358.8556438648237,204.83870814780548 390.93549005113414,204.83870814780548 C423.01533623744467,204.83870814780548 449.0000116483561,225.42936427711055 449.0000116483561,250.84992739970934 C449.0000116483561,276.27049052230825 423.01533623744467,296.8611466516132 390.93549005113414,296.8611466516132 C358.8556438648237,296.8611466516132 332.8709684539122,276.27049052230825 332.8709684539122,250.84992739970934 z" id="svg_14" class=""/><path fill="#bfac87" fill-opacity="1" stroke="#bfac87" stroke-opacity="1" stroke-width="2" stroke-dasharray="none" stroke-linejoin="round" stroke-linecap="butt" stroke-dashoffset="" fill-rule="nonzero" opacity="1" marker-start="" marker-mid="" marker-end="" id="svg_18" d="M385.4365203968698,111.22579508269402 " style="color: rgb(191, 172, 135);"/><path fill="#bfac87" fill-opacity="1" stroke="#bfac87" stroke-opacity="1" stroke-width="2" stroke-dasharray="none" stroke-linejoin="round" stroke-linecap="butt" stroke-dashoffset="" fill-rule="nonzero" opacity="1" marker-start="" marker-mid="" marker-end="" id="svg_15" d="M383.82361723153633,111.22579508269402 " style="color: rgb(191, 172, 135);"/><path fill="#bfac87" fill-opacity="1" stroke="#bfac87" stroke-opacity="1" stroke-width="2" stroke-dasharray="none" stroke-linejoin="round" stroke-linecap="butt" stroke-dashoffset="" fill-rule="nonzero" opacity="1" marker-start="" marker-mid="" marker-end="" id="svg_19" d="M385.4365203968699,110.15053040762989 " style="color: rgb(191, 172, 135);"/><path fill="none" fill-opacity="1" stroke="#484848" stroke-opacity="1" stroke-width="2" stroke-dasharray="none" stroke-linejoin="round" stroke-linecap="butt" stroke-dashoffset="" fill-rule="nonzero" opacity="1" marker-start="" marker-mid="" marker-end="" id="svg_7" d="M306.1354398976574,277.3548211120423 " style="color: rgb(191, 172, 135);" class=""/><path fill="none" fill-opacity="1" stroke="#484848" stroke-opacity="1" stroke-width="2" stroke-dasharray="none" stroke-linejoin="round" stroke-linecap="butt" stroke-dashoffset="" fill-rule="nonzero" opacity="1" marker-start="" marker-mid="" marker-end="" id="svg_11" d="M306.9418914803241,276.5483695293756 " style="color: rgb(191, 172, 135);" class=""/><path fill="#ffffff" fill-opacity="1" stroke="#484848" stroke-opacity="1" stroke-width="2" stroke-dasharray="none" stroke-linejoin="round" stroke-linecap="butt" stroke-dashoffset="" fill-rule="nonzero" opacity="1" marker-start="" marker-mid="" marker-end="" id="svg_1" d="M372.533295074202,211.2257913333697 " style="color: rgb(191, 172, 135);" class=""/><path fill="#f9b325" stroke="#484848" stroke-opacity="1" stroke-width="2" stroke-dasharray="none" stroke-linejoin="round" stroke-linecap="butt" stroke-dashoffset="" fill-rule="nonzero" opacity="1" marker-start="" marker-mid="" marker-end="" d="M361.9677187988244,214.9354844628482 C361.9677187988244,208.145251096451 375.24877414026315,202.64516206966925 391.64513875932323,202.64516206966925 C408.04150337838337,202.64516206966925 421.32255871982204,208.145251096451 421.32255871982204,214.9354844628482 C421.32255871982204,221.72571782924538 408.04150337838337,227.22580685602713 391.64513875932323,227.22580685602713 C375.24877414026315,227.22580685602713 361.9677187988244,221.72571782924538 361.9677187988244,214.9354844628482 z" id="svg_23" class="" fill-opacity="1"/><path fill="none" fill-opacity="1" stroke="#484848" stroke-opacity="1" stroke-width="2" stroke-dasharray="none" stroke-linejoin="round" stroke-linecap="butt" stroke-dashoffset="" fill-rule="nonzero" opacity="1" marker-start="" marker-mid="" marker-end="" id="svg_45" d="M314.4687811221968,279.77417586004253 " style="color: rgb(0, 0, 0);" class=""/><path fill="none" fill-opacity="1" stroke="#484848" stroke-opacity="1" stroke-width="2" stroke-dasharray="none" stroke-linejoin="round" stroke-linecap="butt" stroke-dashoffset="" fill-rule="nonzero" opacity="1" marker-start="" marker-mid="" marker-end="" id="svg_49" d="M245.651571197652,56.38708746135574 " style="color: rgb(0, 0, 0);"/><path fill="none" fill-opacity="1" stroke="#484848" stroke-opacity="1" stroke-width="2" stroke-dasharray="none" stroke-linejoin="round" stroke-linecap="butt" stroke-dashoffset="" fill-rule="nonzero" opacity="1" marker-start="" marker-mid="" marker-end="" id="svg_50" d="M266.6193123469872,70.90321594935705 " style="color: rgb(0, 0, 0);"/></g></svg>